<svg width="336" height="155" viewBox="0 0 336 155" fill="none" xmlns="http://www.w3.org/2000/svg">
<path d="M0.365168 63H8.7229V9.02298C8.7229 8.58768 8.89702 8.3265 9.33232 8.3265C9.76762 8.3265 10.0288 8.41356 10.2029 8.89239L30.1396 63H45.4621V0.317008H37.1044V54.294C37.1044 54.7293 36.9302 54.947 36.4949 54.947C36.0596 54.947 35.7985 54.9034 35.6244 54.4246L15.6877 0.317008H0.365168V63ZM74.2557 16.4231C61.1097 16.4231 50.6626 24.6937 50.6626 40.3645C50.6626 56.0352 61.1097 64.3059 74.2557 64.3059C87.4018 64.3059 97.8489 56.0352 97.8489 40.3645C97.8489 24.6937 87.4018 16.4231 74.2557 16.4231ZM74.2557 23.3878C83.397 23.3878 89.9265 29.482 89.9265 40.3645C89.9265 51.2469 83.397 57.3411 74.2557 57.3411C65.1145 57.3411 58.585 51.2469 58.585 40.3645C58.585 29.482 65.1145 23.3878 74.2557 23.3878ZM102.208 63H110.043V37.3174C110.043 28.6114 114.048 25.2161 121.622 25.2161H127.891V17.5548H122.841C116.66 17.5548 113.526 19.3831 111.523 23.7796C111.349 24.2149 111.175 24.4761 110.653 24.4761C110.218 24.4761 110.043 24.302 110.043 23.8667V17.7289H102.208V63ZM125.872 24.6937H136.319V49.941C136.319 58.7776 140.542 63 149.378 63H157.213V56.0352H154.166H145.417C144.982 56.0352 144.764 55.9482 144.503 55.687C144.242 55.4693 144.111 55.1646 144.111 54.7293C144.111 53.8587 144.154 52.1175 144.154 46.0234V24.6937H157.213V17.7289H144.154V5.54059H136.319V17.7289H125.872V24.6937ZM160.711 63H168.547V39.4939C168.547 28.6114 173.77 23.3878 182.476 23.3878C190.312 23.3878 194.665 27.7408 194.665 36.0115V63H202.5V34.7056C202.5 22.9525 195.579 16.4231 184.261 16.4231C177.558 16.4231 172.943 18.8172 170.114 22.7349C169.766 23.1702 169.592 23.4314 169.156 23.4314C168.721 23.4314 168.547 23.2572 168.547 22.8219V0.317008H160.711V63ZM50.4245 74.317H40.0209L8.7229 103.917V74.317H0.365168V137H8.7229V114.843L17.2112 106.964L40.8479 137H50.1633V135.259L23.1313 101.436L50.4245 76.0582V74.317ZM51.1931 74.317V84.7642H62.5108V74.317H51.1931ZM52.9343 91.7289V137H60.7696V91.7289H52.9343ZM67.7752 137H75.6106V113.494C75.6106 102.611 80.8342 97.3878 89.5402 97.3878C97.3755 97.3878 101.729 101.741 101.729 110.011V137H109.564V108.706C109.564 96.9525 102.643 90.4231 91.3249 90.4231C84.6213 90.4231 80.0071 92.8172 77.1777 96.7349C76.8294 97.1702 76.6553 97.4314 76.22 97.4314C75.7847 97.4314 75.6106 97.2572 75.6106 96.8219V91.7289H67.7752V137ZM113.933 138.48C114.847 148.057 122.552 154.847 136.569 154.847C150.847 154.847 159.378 146.577 159.378 132.212V91.7289H154.155L152.501 97.0831C152.327 97.6055 152.239 97.8667 151.717 97.8667C151.282 97.8667 150.934 97.6925 150.324 96.909C146.581 92.3819 141.618 90.4231 135.393 90.4231C123.989 90.4231 113.585 98.2584 113.585 113.059C113.585 127.859 123.989 135.694 135.393 135.694C141.618 135.694 146.755 133.909 150.237 129.339C150.498 128.991 150.672 128.86 151.021 128.86C151.369 128.86 151.543 129.034 151.543 129.382V132.647C151.543 142.311 146.102 147.882 136.656 147.882C128.298 147.882 123.553 144.139 122.639 138.48H113.933ZM121.507 113.059C121.507 103.047 128.472 97.3878 136.743 97.3878C145.014 97.3878 151.978 103.047 151.978 113.059C151.978 123.07 145.014 128.729 136.743 128.729C128.472 128.729 121.507 123.07 121.507 113.059ZM163.711 114.364C163.711 130.862 175.029 138.306 185.955 138.306C192.397 138.306 197.36 136.26 200.973 131.82C201.234 131.472 201.495 131.211 201.93 131.211C202.365 131.211 202.54 131.472 202.54 131.907V137H210.375V74.317H202.54V96.8219C202.54 97.2572 202.365 97.5184 201.93 97.5184C201.495 97.5184 201.234 97.2572 200.973 96.909C197.36 92.469 192.397 90.4231 185.955 90.4231C175.029 90.4231 163.711 97.8231 163.711 114.364ZM171.633 114.364C171.633 103.482 178.163 97.3878 187.304 97.3878C196.445 97.3878 202.975 103.482 202.975 114.364C202.975 125.247 196.445 131.341 187.304 131.341C178.163 131.341 171.633 125.247 171.633 114.364ZM238.278 90.4231C225.132 90.4231 214.685 98.6937 214.685 114.364C214.685 130.035 225.132 138.306 238.278 138.306C251.424 138.306 261.871 130.035 261.871 114.364C261.871 98.6937 251.424 90.4231 238.278 90.4231ZM238.278 97.3878C247.42 97.3878 253.949 103.482 253.949 114.364C253.949 125.247 247.42 131.341 238.278 131.341C229.137 131.341 222.608 125.247 222.608 114.364C222.608 103.482 229.137 97.3878 238.278 97.3878ZM266.231 137H274.066V111.317C274.066 101.306 279.725 97.3878 285.863 97.3878C293.263 97.3878 297.137 101.306 297.137 109.141V137H304.972V111.317C304.972 101.306 310.631 97.3878 316.769 97.3878C324.169 97.3878 328.043 101.306 328.043 109.141V137H335.878V108.314C335.878 97.4314 329.871 90.4231 319.381 90.4231C311.676 90.4231 307.062 93.2525 304.667 98.2149C304.319 98.9114 304.145 99.0855 303.71 99.0855C303.144 99.0855 303.013 98.8243 302.752 98.389C300.227 93.5137 295.526 90.4231 288.474 90.4231C282.293 90.4231 278.114 92.7301 275.633 96.6043C275.198 97.2137 275.024 97.3878 274.675 97.3878C274.24 97.3878 274.066 97.2137 274.066 96.7784V91.7289H266.231V137Z" fill="white"/>
</svg>
