<svg width="1400" height="202" viewBox="0 0 1400 202" fill="none" xmlns="http://www.w3.org/2000/svg">
<path d="M0.401602 157H21.2835V22.1376C21.2835 21.05 21.7186 20.3974 22.8062 20.3974C23.8938 20.3974 24.5463 20.6149 24.9814 21.8113L74.7934 157H113.077V0.385591H92.195V135.248C92.195 136.336 91.76 136.879 90.6724 136.879C89.5848 136.879 88.9322 136.771 88.4972 135.574L38.6851 0.385591H0.401602V157ZM182.843 40.6268C149.998 40.6268 123.895 61.2912 123.895 100.445C123.895 139.598 149.998 160.263 182.843 160.263C215.689 160.263 241.791 139.598 241.791 100.445C241.791 61.2912 215.689 40.6268 182.843 40.6268ZM182.843 58.0284C205.683 58.0284 221.997 73.2548 221.997 100.445C221.997 127.635 205.683 142.861 182.843 142.861C160.004 142.861 143.69 127.635 143.69 100.445C143.69 73.2548 160.004 58.0284 182.843 58.0284ZM250.507 157H270.084V92.8316C270.084 71.0796 280.09 62.5963 299.014 62.5963H314.676V43.4546H302.059C286.615 43.4546 278.785 48.0225 273.782 59.0072C273.347 60.0948 272.912 60.7474 271.607 60.7474C270.519 60.7474 270.084 60.3124 270.084 59.2248V43.8896H250.507V157ZM318.333 61.2912H344.435V124.372C344.435 146.45 354.985 157 377.063 157H396.64V139.598H389.027H367.166C366.078 139.598 365.534 139.381 364.882 138.728C364.229 138.185 363.903 137.423 363.903 136.336C363.903 134.16 364.012 129.81 364.012 114.584V61.2912H396.64V43.8896H364.012V13.4368H344.435V43.8896H318.333V61.2912ZM403.204 157H422.781V98.2696C422.781 71.0796 435.832 58.0284 457.584 58.0284C477.161 58.0284 488.037 68.9044 488.037 89.5688V157H507.614V86.306C507.614 56.9408 490.321 40.6268 462.044 40.6268C445.295 40.6268 433.766 46.6086 426.697 56.397C425.827 57.4846 425.392 58.1372 424.304 58.1372C423.216 58.1372 422.781 57.7021 422.781 56.6145V0.385591H403.204V157ZM695.217 0.385591H669.223L591.024 74.3424V0.385591H570.143V157H591.024V101.641L612.233 81.9556L671.289 157H694.564V152.65L627.024 68.1431L695.217 4.73599V0.385591ZM699.312 0.385591V26.488H727.59V0.385591H699.312ZM703.662 43.8896V157H723.239V43.8896H703.662ZM738.568 157H758.144V98.2696C758.144 71.0796 771.196 58.0284 792.948 58.0284C812.524 58.0284 823.4 68.9044 823.4 89.5688V157H842.977V86.306C842.977 56.9408 825.684 40.6268 797.407 40.6268C780.658 40.6268 769.129 46.6086 762.06 56.397C761.19 57.4846 760.755 58.1372 759.667 58.1372C758.579 58.1372 758.144 57.7021 758.144 56.6145V43.8896H738.568V157ZM851.719 160.698C854.003 184.625 873.253 201.592 908.274 201.592C943.947 201.592 965.264 180.927 965.264 145.036V43.8896H952.213L948.08 57.2671C947.645 58.5722 947.428 59.2248 946.123 59.2248C945.035 59.2248 944.165 58.7897 942.642 56.832C933.289 45.521 920.89 40.6268 905.338 40.6268C876.842 40.6268 850.849 60.2036 850.849 97.182C850.849 134.16 876.842 153.737 905.338 153.737C920.89 153.737 933.724 149.278 942.425 137.858C943.077 136.988 943.512 136.662 944.382 136.662C945.252 136.662 945.687 137.097 945.687 137.967V146.124C945.687 170.269 932.092 184.19 908.492 184.19C887.61 184.19 875.755 174.837 873.471 160.698H851.719ZM870.643 97.182C870.643 72.1672 888.045 58.0284 908.709 58.0284C929.373 58.0284 946.775 72.1672 946.775 97.182C946.775 122.197 929.373 136.336 908.709 136.336C888.045 136.336 870.643 122.197 870.643 97.182ZM973.914 100.445C973.914 141.665 1002.19 160.263 1029.49 160.263C1045.59 160.263 1057.99 155.151 1067.01 144.058C1067.67 143.187 1068.32 142.535 1069.41 142.535C1070.49 142.535 1070.93 143.187 1070.93 144.275V157H1090.5V0.385591H1070.93V56.6145C1070.93 57.7021 1070.49 58.3547 1069.41 58.3547C1068.32 58.3547 1067.67 57.7021 1067.01 56.832C1057.99 45.7385 1045.59 40.6268 1029.49 40.6268C1002.19 40.6268 973.914 59.116 973.914 100.445ZM993.708 100.445C993.708 73.2548 1010.02 58.0284 1032.86 58.0284C1055.7 58.0284 1072.02 73.2548 1072.02 100.445C1072.02 127.635 1055.7 142.861 1032.86 142.861C1010.02 142.861 993.708 127.635 993.708 100.445ZM1158.05 40.6268C1125.2 40.6268 1099.1 61.2912 1099.1 100.445C1099.1 139.598 1125.2 160.263 1158.05 160.263C1190.89 160.263 1216.99 139.598 1216.99 100.445C1216.99 61.2912 1190.89 40.6268 1158.05 40.6268ZM1158.05 58.0284C1180.89 58.0284 1197.2 73.2548 1197.2 100.445C1197.2 127.635 1180.89 142.861 1158.05 142.861C1135.21 142.861 1118.89 127.635 1118.89 100.445C1118.89 73.2548 1135.21 58.0284 1158.05 58.0284ZM1225.71 157H1245.29V92.8316C1245.29 67.8168 1259.43 58.0284 1274.76 58.0284C1293.25 58.0284 1302.93 67.8168 1302.93 87.3936V157H1322.51V92.8316C1322.51 67.8168 1336.65 58.0284 1351.98 58.0284C1370.47 58.0284 1380.15 67.8168 1380.15 87.3936V157H1399.73V85.3272C1399.73 58.1372 1384.72 40.6268 1358.51 40.6268C1339.26 40.6268 1327.73 47.6962 1321.75 60.0948C1320.88 61.835 1320.44 62.27 1319.35 62.27C1317.94 62.27 1317.61 61.6175 1316.96 60.5299C1310.65 48.3487 1298.91 40.6268 1281.29 40.6268C1265.84 40.6268 1255.4 46.3911 1249.2 56.0707C1248.12 57.5934 1247.68 58.0284 1246.81 58.0284C1245.72 58.0284 1245.29 57.5934 1245.29 56.5058V43.8896H1225.71V157Z" fill="black"/>
</svg>
